# xmcd CD database file
#
# Track frame offsets:
#	150
#	19870
#	47297
#	74877
#	102194
#	129818
#
# Disc length: 1991 seconds
#
# Revision: 3
# Processed by: cddbd v1.5PL3 Copyright (c) Steve Scherf et al.
# Submitted via: CDex 1.50beta8
#
DISCID=4807c506
DTITLE=ZONE - H・A・N・A・B・I 〜君がいた夏〜
DYEAR=2003
DGENRE=Pop
TTITLE0=H・A・N・A・B・I 〜君がいた夏〜
TTITLE1=H・A・N・A・B・I 〜君がいた夏〜 Takayo Ocean Version
TTITLE2=H・A・N・A・B・I 〜君がいた夏〜 Miyu Ocean Version
TTITLE3=H・A・N・A・B・I 〜君がいた夏〜 Maiko Ocean Version
TTITLE4=H・A・N・A・B・I 〜君がいた夏〜 Mizuho Ocean Version
TTITLE5=H・A・N・A・B・I 〜君がいた夏〜 (Backin Track)
EXTD=YEAR: 2003
EXTT0=
EXTT1=
EXTT2=
EXTT3=
EXTT4=
EXTT5=
PLAYORDER=
